<?xml version="1.0" standalone="no"?>
<!DOCTYPE svg PUBLIC "-//W3C//DTD SVG 20010904//EN"
 "http://www.w3.org/TR/2001/REC-SVG-20010904/DTD/svg10.dtd">
<svg version="1.0" xmlns="http://www.w3.org/2000/svg"
 width="256.000000pt" height="256.000000pt" viewBox="0 0 256.000000 256.000000"
 preserveAspectRatio="xMidYMid meet">
<metadata>
Created by potrace 1.11, written by Peter Selinger 2001-2013
</metadata>
<g transform="translate(0.000000,256.000000) scale(0.100000,-0.100000)"
fill="#000000" stroke="none">
<path d="M1036 2483 c-4 -4 -26 -8 -50 -9 -24 -1 -53 -7 -64 -13 -12 -6 -30
-11 -42 -11 -11 0 -32 -8 -46 -17 -22 -14 -29 -15 -47 -4 -11 8 -40 15 -64 16
-38 3 -50 -2 -93 -36 -29 -23 -50 -48 -50 -59 0 -11 -9 -43 -19 -72 -10 -29
-19 -62 -20 -73 -1 -24 0 -136 1 -185 1 -51 -10 -179 -17 -189 -3 -5 -1 -12 4
-16 10 -6 -6 -65 -20 -75 -11 -8 -28 -80 -23 -95 3 -8 -4 -16 -16 -20 -13 -4
-19 -12 -16 -21 3 -7 -6 -26 -19 -42 -14 -16 -22 -32 -18 -35 3 -4 1 -13 -6
-21 -11 -13 -24 -76 -22 -101 9 -85 -2 -189 -26 -245 -3 -8 -5 -19 -4 -24 1
-4 -6 -20 -15 -34 -19 -28 -29 -188 -13 -198 12 -7 3 -134 -12 -169 -6 -16
-13 -41 -14 -55 0 -14 -5 -33 -9 -42 -4 -9 -5 -21 -2 -26 3 -5 -1 -20 -9 -35
-7 -14 -11 -28 -7 -31 3 -3 -2 -14 -11 -24 -20 -21 -17 -150 4 -163 7 -4 14
-20 16 -34 4 -27 24 -55 40 -55 4 0 34 -25 66 -55 32 -30 60 -55 63 -55 3 0
13 -9 23 -21 16 -20 18 -20 56 -5 28 12 40 13 46 5 4 -6 18 -13 33 -14 14 -2
33 -10 42 -19 8 -9 20 -16 25 -16 6 0 30 -9 55 -21 49 -22 50 -22 102 30 21
21 26 22 33 9 10 -18 74 -14 97 5 9 7 16 7 24 -1 8 -8 19 -7 40 4 20 11 33 12
42 5 13 -11 78 -6 106 9 12 6 24 4 39 -6 25 -18 157 -28 166 -13 4 5 22 9 40
9 24 0 38 6 45 20 6 11 16 17 25 13 15 -5 52 6 104 31 19 8 25 8 28 -1 5 -15
42 -17 77 -3 15 5 28 6 31 0 3 -5 12 -7 20 -3 8 3 15 0 15 -6 0 -12 50 7 62
24 5 6 8 6 8 -2 0 -6 13 -16 30 -21 24 -9 33 -7 53 8 23 18 23 18 35 0 10 -16
16 -17 44 -8 38 13 108 47 123 59 5 5 12 30 15 57 4 42 8 47 30 48 45 1 49 4
44 27 -4 21 -6 142 -2 180 1 9 5 17 10 17 12 0 10 37 -4 59 -9 15 -8 29 4 67
9 27 13 54 10 59 -4 6 -8 28 -9 50 -1 22 -5 58 -8 80 -9 52 -10 102 -3 143 5
37 -14 136 -31 156 -14 16 -4 46 14 46 19 0 21 19 21 140 -1 72 3 109 12 118
8 9 10 26 7 46 -5 23 -1 38 14 58 12 15 17 29 12 32 -19 12 -32 174 -16 214 3
9 7 44 9 77 1 38 9 70 20 88 14 21 17 37 12 69 -4 25 -3 44 4 48 14 9 15 147
1 164 -11 13 -63 31 -121 41 -19 3 -40 11 -47 17 -8 6 -16 8 -20 5 -3 -4 -17
3 -31 13 -13 11 -31 20 -39 20 -7 0 -24 7 -37 16 -13 8 -27 11 -30 6 -7 -12
-105 -5 -121 8 -10 8 -19 8 -33 -1 -15 -9 -32 -10 -73 -1 -49 9 -56 8 -76 -10
-12 -11 -26 -17 -31 -14 -6 3 -25 8 -42 10 -17 2 -43 14 -57 27 -14 13 -27 19
-29 14 -5 -13 -84 -7 -102 8 -20 16 -53 19 -67 7 -10 -8 -19 -5 -33 10 -13 15
-27 20 -40 16 -12 -4 -24 0 -32 9 -11 13 -27 15 -77 11 -35 -3 -68 -8 -73 -11
-5 -3 -11 -1 -15 5 -7 12 -19 13 -29 3z m423 -317 c6 -4 16 -4 23 0 7 4 26 8
42 7 27 0 31 -3 28 -25 -2 -19 3 -27 19 -31 14 -4 20 -11 16 -21 -3 -8 -2 -18
3 -21 5 -3 7 -12 3 -20 -4 -11 3 -15 23 -16 16 -1 33 -1 37 0 5 1 6 -2 3 -7
-3 -5 -1 -24 4 -43 5 -19 11 -52 14 -74 4 -35 15 -89 31 -162 4 -17 -1 -23
-24 -28 -16 -3 -37 -15 -47 -27 -18 -19 -18 -20 6 -40 16 -13 35 -18 56 -16
32 4 33 3 43 -52 6 -30 12 -65 15 -78 3 -13 0 -32 -7 -43 -14 -23 -42 -26 -33
-3 3 8 -2 24 -13 35 -20 21 -37 19 -82 -13 -23 -15 -28 -16 -33 -3 -3 8 -12
12 -19 9 -8 -3 -21 1 -28 9 -8 8 -21 16 -29 20 -9 3 -4 6 13 6 30 1 34 16 18
67 -5 16 -12 42 -16 57 -5 24 -10 28 -30 23 -26 -7 -58 2 -50 13 9 15 -16 81
-35 91 -24 13 -26 47 -3 72 9 10 16 31 15 47 -1 31 -27 91 -40 91 -13 0 -28
-15 -35 -33 -4 -10 -11 -16 -16 -13 -5 4 -11 0 -14 -6 -3 -10 -9 -9 -23 3 -30
25 -52 29 -69 13 -17 -17 -20 -15 -69 29 -11 9 -24 17 -28 17 -10 0 -31 -51
-24 -58 3 -2 1 -13 -4 -23 -6 -9 -7 -25 -4 -34 7 -18 58 -47 68 -38 8 8 46
-27 46 -43 0 -7 9 -16 20 -19 11 -3 20 -11 20 -16 0 -5 6 -9 14 -9 24 0 29
-65 11 -160 -3 -14 -8 -55 -11 -92 -7 -65 -8 -68 -33 -68 -19 0 -30 9 -41 33
-19 41 -46 47 -61 14 -11 -24 -13 -25 -50 -12 -41 15 -63 12 -91 -13 -10 -8
-18 -12 -18 -9 0 15 -4 23 -16 32 -10 8 -8 32 11 125 13 63 26 129 29 145 2
17 7 41 10 55 11 52 16 76 20 96 9 44 30 110 44 131 8 13 11 34 7 55 -4 18 -2
45 3 59 l10 25 180 -1 c98 -1 184 -5 191 -9z m6 -708 c9 -24 10 -35 2 -40 -17
-10 -24 -1 -29 37 -5 44 9 45 27 3z m221 -74 c-3 -7 4 -18 14 -24 11 -6 20
-17 20 -24 0 -16 45 -37 64 -30 9 3 15 -4 19 -23 3 -15 4 -29 3 -31 -2 -1 -24
7 -50 19 -44 19 -49 19 -66 4 -11 -10 -26 -14 -42 -10 -33 9 -57 -18 -40 -46
7 -10 12 -31 12 -46 0 -16 7 -36 15 -47 12 -15 19 -17 44 -8 16 6 32 8 35 5 8
-8 19 45 13 61 -5 12 -1 12 29 0 34 -14 36 -14 41 6 6 22 23 28 23 8 1 -32 12
-96 22 -126 7 -24 7 -37 -3 -48 -10 -12 -8 -19 11 -39 l23 -25 -37 -15 c-27
-12 -36 -20 -32 -33 3 -9 7 -29 10 -44 2 -15 13 -37 24 -49 11 -11 23 -36 26
-54 4 -18 13 -38 21 -45 8 -7 15 -22 15 -34 0 -12 10 -34 22 -49 13 -16 28
-53 34 -83 l11 -55 -50 3 c-48 3 -50 4 -52 37 -3 30 -17 50 -37 51 -3 0 -20
-11 -36 -25 -17 -14 -34 -25 -40 -25 -5 0 -12 -8 -14 -18 -7 -24 -57 -28 -65
-4 -4 9 -9 19 -12 22 -3 3 -11 14 -17 25 -12 20 -17 21 -65 9 -24 -5 -27 -3
-34 33 -4 21 -8 52 -10 68 -17 139 -15 135 -56 135 -22 0 -29 5 -29 19 0 21
-44 61 -66 61 -7 0 -21 -11 -30 -25 -13 -20 -24 -25 -59 -25 -29 0 -45 -5 -49
-15 -3 -9 -18 -15 -39 -15 -38 0 -58 -15 -50 -39 4 -9 -6 -4 -20 12 -14 15
-34 27 -43 27 -21 0 -54 -28 -54 -47 0 -7 -9 -30 -20 -50 -18 -34 -18 -38 -2
-65 18 -30 42 -35 88 -18 l27 11 -8 -58 c-4 -32 -7 -64 -8 -70 0 -14 -17 -16
-81 -13 -23 1 -42 -4 -47 -12 -7 -10 -9 -10 -9 0 0 7 -13 12 -29 12 -29 0 -30
1 -19 32 11 30 9 33 -28 65 -21 18 -34 33 -28 33 22 0 24 32 4 60 -11 15 -17
30 -13 34 6 6 1 7 -38 10 -12 0 -26 8 -31 16 -8 13 12 128 67 385 3 11 14 65
26 120 12 55 23 106 25 113 4 13 46 17 57 5 7 -7 20 -8 127 -16 36 -3 82 -8
103 -12 39 -8 49 -27 21 -43 -9 -5 -18 -24 -19 -43 -2 -19 -4 -35 -4 -36 -1
-2 0 -4 1 -5 1 -2 -4 -13 -10 -24 -9 -17 -8 -25 3 -40 8 -11 15 -29 15 -41 0
-12 11 -30 25 -41 13 -11 22 -22 19 -25 -3 -3 -7 -38 -8 -77 -2 -51 1 -76 11
-86 18 -17 22 -17 57 -1 25 11 27 15 21 57 -8 54 -8 47 -6 90 l1 35 53 0 54 0
-3 -60 c-2 -33 -4 -67 -5 -75 -4 -33 2 -50 22 -60 16 -9 25 -8 40 6 10 9 19
25 19 35 0 10 5 21 10 24 6 4 8 10 5 15 -3 4 2 13 10 20 8 7 15 18 15 25 0 7
7 18 16 25 12 11 18 10 31 -3 12 -11 13 -20 6 -29 -12 -15 -8 -55 7 -73 7 -8
3 -15 -14 -23 -27 -12 -25 -37 6 -81 13 -19 19 -21 37 -12 12 7 21 20 21 30 0
21 26 46 58 55 12 4 22 13 23 19 0 7 2 20 4 29 3 19 -19 43 -33 34 -4 -3 -16
8 -26 25 -9 16 -12 29 -7 29 6 0 11 -6 11 -14 0 -24 75 -41 96 -21 20 19 34
53 34 82 l0 29 -72 0 c-40 0 -76 -4 -79 -9 -10 -14 -49 12 -49 32 0 26 -58 50
-72 30 -10 -15 -9 -11 14 55 8 20 8 30 -1 35 -6 4 -9 15 -5 24 4 12 10 14 24
7 23 -12 49 15 54 58 4 38 33 85 47 76 6 -3 8 -12 5 -20z m-196 -290 c0 -8 -5
-12 -10 -9 -6 4 -8 11 -5 16 9 14 15 11 15 -7z m-673 -533 c21 -15 52 -36 69
-44 28 -16 27 -16 -65 -17 -85 0 -93 2 -86 18 8 19 13 41 14 60 1 20 25 14 68
-17z"/>
<path d="M1469 2096 c-35 -47 -34 -66 4 -79 23 -7 31 -5 48 14 12 14 18 31 15
44 -3 11 -6 29 -6 41 0 34 -30 24 -61 -20z"/>
<path d="M889 1013 c-8 -2 -22 -16 -31 -31 -13 -22 -14 -29 -3 -39 8 -7 18
-20 23 -29 8 -15 13 -14 56 5 49 21 50 26 17 64 -20 24 -42 34 -62 30z"/>
</g>
</svg>
